<?xml version="1.0" encoding="UTF-8"?>
<svg width="88px" height="87px" viewBox="0 0 88 87" version="1.1" xmlns="http://www.w3.org/2000/svg" xmlns:xlink="http://www.w3.org/1999/xlink">
    <!-- Generator: Sketch 44.1 (41455) - http://www.bohemiancoding.com/sketch -->
    <title>Arrow Down</title>
    <desc>Created with Sketch.</desc>
    <defs></defs>
    <g id="Page-1" stroke="none" stroke-width="1" fill="none" fill-rule="evenodd">
        <g id="Web-layout" transform="translate(-133.000000, -894.000000)">
            <g id="Header" transform="translate(0.000000, -44.000000)">
                <g id="Arrow-Down" transform="translate(133.046196, 938.000000)">
                    <path d="M43.5461961,87 C55.9235649,87 67.7266458,82.3518409 75.6479927,74.054217 C83.5693395,65.7565932 87.0461961,55.1470178 87.0461961,43.5 C87.0461961,32.186433 82.727172,21.8816282 75.6479927,14.1444545 C67.6945177,5.45172125 56.2570158,0 43.5461961,0 C30.8080504,0 19.3487031,5.47518698 11.3931521,14.2005631 C4.34438164,21.9314133 0.0461961053,32.2137591 0.0461961053,43.5 C0.0461961053,55.408299 4.8312407,66.1989909 12.5834711,74.054217 C20.4709706,82.0465094 31.4301085,87 43.5461961,87 Z" id="Oval" fill="#F1DD82"></path>
                    <g id="Group" transform="translate(32.546196, 26.500000)" fill="#FFF9DC">
                        <path d="M11,33.5775145 L0.59693842,18.1163585 L0.59693842,18.1163585 C-0.019684885,17.1999255 0.223358909,15.9571378 1.13979193,15.3405145 C1.46980256,15.1184663 1.85852797,14.9998632 2.25628719,14.9998632 L19.7437128,14.9998632 L19.7437128,14.9998632 C20.8482823,14.9998632 21.7437128,15.8952937 21.7437128,16.9998632 C21.7437128,17.3976225 21.6251097,17.7863479 21.4030616,18.1163585 L11,33.5775145 Z" id="Triangle"></path>
                        <path d="M11,0 L11,0 L11,0 C12.1045695,-2.02906125e-16 13,0.8954305 13,2 L13,22.6524544 L9,22.6524544 L9,2 L9,2 C9,0.8954305 9.8954305,2.02906125e-16 11,0 Z" id="Rectangle-3"></path>
                    </g>
                </g>
            </g>
        </g>
    </g>
</svg>